<svg width="75" height="26" viewBox="0 0 75 26" fill="none" xmlns="http://www.w3.org/2000/svg">
<path d="M67.9627 3.40083V10.5804H59.6495V9.50074H66.8831V3.02296C60.9451 1.34954 54.8452 4.80435 53.1718 10.7423C51.6603 16.1405 54.4133 21.8625 59.6495 24.0218V16.8962H67.9627V17.9758H60.7292V24.3996C66.6132 26.127 72.821 22.7802 74.5484 16.8962C76.1679 11.3901 73.3069 5.50611 67.9627 3.40083ZM11.552 2.915C14.9529 2.915 16.4644 5.2362 16.4644 8.09722C16.4644 10.9582 14.7909 13.3874 11.552 13.3874C7.82731 13.3874 6.53176 10.7963 6.53176 8.09722C6.53176 4.85833 8.36713 2.915 11.552 2.915ZM11.552 11.714C13.6573 11.714 14.3591 9.3388 14.3591 8.1512C14.3591 7.12556 13.7653 4.64241 11.552 4.64241C9.44676 4.64241 8.58306 6.4238 8.58306 8.1512C8.52907 9.39278 9.12287 11.714 11.552 11.714ZM23.9678 13.2255V11.8759H23.9138C23.266 12.9016 22.1324 13.4954 20.8908 13.4414C18.7856 13.4414 17.1661 12.3618 17.1661 9.77065V3.23889H19.4333V9.71667C19.4333 11.3361 20.405 11.8219 21.4846 11.8219C23.8058 11.8219 23.8598 9.6087 23.8598 8.63704V3.23889H26.0191V13.2255H23.9678ZM36.2756 9.39278C36.0056 11.4441 34.6561 13.2255 31.6871 13.2255C28.7181 13.2255 26.9368 11.1202 26.9368 8.31315C26.9368 5.50611 28.3943 2.915 31.6871 2.915C34.7641 2.915 36.4375 5.07426 36.4375 8.52907H29.042C29.042 9.93259 29.6358 11.606 31.7411 11.606C33.0367 11.66 34.1703 10.6883 34.2782 9.39278H36.2756ZM34.2243 7.17954C34.1163 5.83 33.3066 4.53444 31.6871 4.53444C30.2296 4.53444 29.042 5.66806 29.042 7.12556V7.23352H34.2243V7.17954ZM50.4727 21.2147C50.2028 23.266 48.8532 25.0474 45.8843 25.0474C42.9153 25.0474 41.1339 22.9961 41.1339 20.1351C41.1339 17.2741 42.5914 14.7369 45.8843 14.7369C48.9612 14.7369 50.6346 16.8962 50.6346 20.351H43.1852C43.1852 21.7545 43.779 23.428 45.8843 23.428C47.1798 23.4819 48.3134 22.5103 48.4214 21.2147H50.4727ZM48.3674 18.9475C48.2594 17.598 47.4497 16.3024 45.8303 16.3024C44.3728 16.2484 43.1852 17.436 43.1852 18.8935V19.0015H48.3674V18.9475ZM42.7533 5.72204C42.7533 5.29019 42.2675 4.42648 40.756 4.42648C40.1622 4.42648 38.7587 4.3725 38.7587 5.56009C38.7587 6.63972 39.8383 6.74769 41.5657 7.01759C43.617 7.39546 45.2905 7.8813 45.2905 10.0406C45.2905 12.0919 43.4011 13.2255 41.0259 13.2255C36.4375 13.2255 36.7074 10.5804 36.6534 9.44676H38.5968C38.6507 10.2025 38.4348 11.66 40.9719 11.66C42.2675 11.66 43.1312 11.3901 43.1312 10.3105C43.1312 9.23083 42.2135 9.01491 40.4861 8.745C37.949 8.36713 36.7614 7.55741 36.7614 5.66806C36.7614 3.5088 38.8667 2.915 40.9719 2.915C44.6967 2.915 44.9666 5.66806 44.9666 5.83L42.7533 5.72204ZM48.6373 4.69639V10.7423C48.6373 11.4981 49.1771 11.4981 49.555 11.4981H50.5267V13.0095H47.9895C47.4497 13.0095 46.586 12.3618 46.586 11.1742V4.69639H44.9666V3.23889H46.586V0H48.6373V3.18491H50.5267V4.64241L48.6373 4.69639ZM3.67074 16.7343V24.8855H1.61944V16.7343H0V15.0608H1.61944V13.4954C1.61944 12.3078 2.59111 11.3361 3.7787 11.3901H5.72204V13.1715H4.64241C3.94065 13.1715 3.67074 13.4414 3.67074 14.1971V15.1148H5.72204V16.7882L3.67074 16.7343ZM8.69102 24.8855H6.80167V15.0608H8.69102V16.7882C9.23083 15.6546 10.3644 14.8989 11.66 14.8449H12.5777V16.7343H11.714C10.1485 16.6803 8.79898 17.8679 8.69102 19.4333V24.8855Z" fill="#C0C0CF"/>
<path d="M12.4158 18.084C12.5237 15.7088 14.2512 14.7371 16.8962 14.7371C18.2458 14.7371 20.8369 15.115 20.8369 17.6521V24.8857H18.9475V23.86C18.0299 24.7237 16.7883 25.2095 15.5467 25.2095C13.0636 25.2095 12.1459 23.752 12.1459 22.2945C12.1459 21.4848 12.2538 19.6495 15.1688 19.3256L17.9219 18.8937C18.4617 18.8397 18.8936 18.4079 18.8396 17.8681C18.8396 16.9504 18.2458 16.6265 16.7883 16.6265C15.2228 16.6265 14.629 17.1663 14.629 18.138L12.4158 18.084ZM18.8936 19.9733C18.6237 20.1893 18.1918 20.3512 15.9786 20.5671C15.1149 20.6751 14.2512 20.837 14.2512 22.0786C14.2512 23.0503 15.0069 23.4282 15.9786 23.4282C17.2741 23.4282 18.8396 22.7264 18.8396 21.5928L18.8936 19.9733ZM30.4996 24.8857H28.3403V18.9477C28.3403 17.1123 27.6925 16.3566 26.235 16.3566C25.2094 16.3566 23.8059 17.0583 23.8059 19.2716V24.8857H21.7006V15.061H23.8059V16.3566C24.3997 15.5469 25.4253 14.5752 26.8288 14.5752C27.7465 14.5752 30.4456 15.115 30.4456 18.2459V24.8857H30.4996ZM38.4888 18.192C38.3269 17.1123 37.3552 16.3026 36.2216 16.3566C34.0084 16.3566 33.4146 18.138 33.4146 19.8654C33.4146 21.3769 33.8464 23.3742 36.2216 23.3742C37.5172 23.3742 38.2189 22.4025 38.4888 21.107H40.6481C40.4862 22.6724 39.3525 25.0476 36.2216 25.0476C33.0367 25.0476 31.3633 22.9963 31.3633 19.8654C31.3633 16.2486 33.6305 14.5752 36.2756 14.5752C38.6508 14.5752 40.4322 16.1407 40.5941 18.138L38.4888 18.192Z" fill="#C0C0CF"/>
</svg>
