<svg xmlns="http://www.w3.org/2000/svg"  viewBox="0 0 48 48" width="48px" height="48px"><path fill="#00897b" d="M39,7v4H9V7c0-0.55,0.45-1,1-1h1l13-1l13,1h1C38.55,6,39,6.45,39,7z"/><rect width="30" height="32" x="9" y="11" fill="#b2dfdb"/><path fill="#80cbc4" d="M39,44H9c-0.553,0-1-0.448-1-1s0.447-1,1-1h30c0.553,0,1,0.448,1,1S39.553,44,39,44z"/><path fill="#80cbc4" d="M39,12H9c-0.553,0-1-0.448-1-1s0.447-1,1-1h30c0.553,0,1,0.448,1,1S39.553,12,39,12z"/><path fill="#80cbc4" d="M37,5v1H11V5c0-0.55,0.45-1,1-1h24C36.55,4,37,4.45,37,5z"/><path fill="#43a047" d="M25.39,27.57c-0.99,4.67-6.58,8.41-6.58,8.41s-3.59-5.7-2.6-10.36c0.99-4.67,6.85-8.61,6.85-8.61 S26.39,22.9,25.39,27.57z"/><path fill="#388e3c" d="M23.064,17.014l-4.258,18.969c0,0,5.597-3.745,6.589-8.411S23.064,17.014,23.064,17.014z"/><path fill="#66bb6a" d="M28.354,32.417C25.148,35.845,18.779,36,18.779,36s-0.459-6.417,2.743-9.85S32,22,32,22 S31.185,29.391,28.354,32.417z"/><path fill="#43a047" d="M28.354,32.417C25.148,35.845,18.779,36,18.779,36L32,22C32,22,31.185,29.391,28.354,32.417z"/></svg>